<svg width="640" height="720" viewBox="0 0 640 720" fill="none" xmlns="http://www.w3.org/2000/svg" role="img" aria-label="henrii app mockup">
  <rect width="640" height="720" rx="42" fill="#0f172a" fill-opacity="0.02"/>
  <rect x="44" y="24" width="552" height="672" rx="30" fill="#ffffff" stroke="#D9EAFB" stroke-width="6"/>
  <rect x="74" y="72" width="492" height="58" rx="14" fill="#F8F9FF"/>
  <circle cx="96" cy="102" r="12" fill="#F8B4C8"/>
  <circle cx="128" cy="102" r="12" fill="#B4D8F8"/>
  <rect x="420" y="86" width="120" height="16" rx="8" fill="#E4EEF9"/>

  <rect x="74" y="148" width="492" height="120" rx="16" fill="#F6FAFF"/>
  <text x="98" y="184" fill="#0f172a" font-size="24" font-family="Inter, Arial" font-weight="700">Today</text>
  <text x="98" y="214" fill="#64748b" font-size="15" font-family="Inter, Arial">2 feedings · 9 diapers · 3h 12m sleep</text>
  <rect x="530" y="168" width="18" height="18" rx="9" fill="#16a34a"/>

  <rect x="74" y="286" width="492" height="92" rx="14" fill="#FFFFFF" stroke="#EEF3FA" stroke-width="2"/>
  <rect x="90" y="306" width="76" height="16" rx="8" fill="#DBEAFE"/>
  <rect x="90" y="334" width="180" height="12" rx="6" fill="#CBD5F5"/>
  <rect x="90" y="356" width="140" height="12" rx="6" fill="#CBD5F5"/>

  <rect x="74" y="390" width="492" height="112" rx="14" fill="#FFFFFF" stroke="#EEF3FA" stroke-width="2"/>
  <rect x="90" y="414" width="88" height="18" rx="9" fill="#FCE7F3"/>
  <rect x="90" y="438" width="210" height="12" rx="6" fill="#CBD5F5"/>
  <rect x="90" y="462" width="160" height="12" rx="6" fill="#CBD5F5"/>

  <rect x="74" y="516" width="492" height="110" rx="14" fill="#FFFFFF" stroke="#EEF3FA" stroke-width="2"/>
  <rect x="90" y="538" width="110" height="18" rx="9" fill="#DDEBFF"/>
  <path d="M90 575C130 548 172 612 214 590C256 568 298 530 340 547C382 564 424 610 466 590C508 570 548 512 590 498" stroke="#B4D8F8" stroke-width="6" stroke-linecap="round"/>
  <path d="M90 603C128 590 162 612 200 596C238 580 272 548 310 558C348 568 384 606 422 600" stroke="#F8B4C8" stroke-width="6" stroke-linecap="round"/>

  <rect x="74" y="640" width="492" height="44" rx="22" fill="#F8FAFC"/>
  <circle cx="148" cy="662" r="12" fill="#F8B4C8"/>
  <circle cx="214" cy="662" r="12" fill="#B4D8F8"/>
  <circle cx="280" cy="662" r="12" fill="#F7C873"/>
  <circle cx="350" cy="662" r="12" fill="#C4F0C9"/>
</svg>
