<svg width="640" height="640" viewBox="0 0 640 640" fill="none" xmlns="http://www.w3.org/2000/svg">
  <defs>
    <linearGradient id="bg" x1="0" y1="0" x2="1" y2="1">
      <stop offset="0%" stop-color="#EEF4FF"/>
      <stop offset="100%" stop-color="#DDEAFE"/>
    </linearGradient>
    <linearGradient id="moon" x1="0" y1="0" x2="1" y2="1">
      <stop offset="0%" stop-color="#FDE68A"/>
      <stop offset="100%" stop-color="#FDBA74"/>
    </linearGradient>
  </defs>
  <rect width="640" height="640" fill="url(#bg)"/>
  <rect x="80" y="84" width="480" height="472" rx="24" fill="#FFFFFF" stroke="#E2E8F0" stroke-width="6"/>
  <circle cx="220" cy="210" r="74" fill="url(#moon)" />
  <path d="M230 162c-22 0-40 18-40 40m40-40c12 0 24 4 33 11M190 202a40 40 0 1 0 0 80c14 0 26-6 34-15" stroke="#7C3AED" stroke-opacity="0.2" stroke-width="6" stroke-linecap="round"/>
  <path d="M332 236H492" stroke="#CBD5F5" stroke-width="12" stroke-linecap="round"/>
  <path d="M332 286H492" stroke="#CBD5F5" stroke-width="12" stroke-linecap="round"/>
  <path d="M332 336H492" stroke="#CBD5F5" stroke-width="12" stroke-linecap="round"/>
  <rect x="332" y="386" width="160" height="42" rx="14" fill="#ECFEFF"/>
  <path d="M332 448L432 448H492" stroke="#CBD5F5" stroke-width="12" stroke-linecap="round"/>
  <rect x="140" y="392" width="100" height="72" rx="20" fill="#1E293B" opacity="0.06"/>
  <circle cx="190" cy="428" r="10" fill="#1E293B" opacity="0.2"/>
  <circle cx="220" cy="428" r="10" fill="#1E293B" opacity="0.2"/>
  <circle cx="250" cy="428" r="10" fill="#1E293B" opacity="0.2"/>
  <path d="M330 540C380 505 428 564 480 532C528 502 572 456 600 482" stroke="#B4D8F8" stroke-width="8" stroke-linecap="round"/>
</svg>
